<?xml version="1.0" encoding="UTF-8" standalone="no"?>
<!DOCTYPE svg PUBLIC "-//W3C//DTD SVG 1.1//EN" "http://www.w3.org/Graphics/SVG/1.1/DTD/svg11.dtd">
<svg width="100%" height="100%" viewBox="0 0 452 135" version="1.1" xmlns="http://www.w3.org/2000/svg" xmlns:xlink="http://www.w3.org/1999/xlink" xml:space="preserve" xmlns:serif="http://www.serif.com/" style="fill-rule:evenodd;clip-rule:evenodd;stroke-linejoin:round;stroke-miterlimit:2;">
    <g id="bg">
        <rect x="121.63" y="81.74" width="114.91" height="37.58" style="fill:rgb(235,235,235);"/>
        <rect x="121.55" y="8.35" width="323" height="70.8" style="fill:rgb(235,235,235);"/>
        <rect x="7.14" y="8.35" width="111.05" height="110.97" style="fill:rgb(235,235,235);"/>
    </g>
    <g id="logo">
        <path d="M7.14,8.35L7.14,119.41L118.19,119.41L118.19,8.35L7.14,8.35ZM110.85,64.35C110.37,65.27 109.85,66.14 109.39,67.06C108.774,68.424 107.336,69.236 105.85,69.06C105.291,69.041 104.742,69.218 104.3,69.56C102.93,70.46 101.54,71.35 100.12,72.19C98.167,73.263 95.827,73.388 93.77,72.53C90.379,71.219 86.776,70.541 83.14,70.53C79.489,70.41 75.985,72.006 73.68,74.84C72.742,76.145 72.023,77.594 71.55,79.13C70.31,82.2 69.25,100.51 69.25,105.18C69.25,105.18 51.63,101.76 35.1,84.84L39.41,73.52L25.91,73.52L35.67,63.17L18.87,63.17L28.64,52.83L12.69,52.83L30.45,34C35.895,28.61 42.746,24.857 50.22,23.17C57.32,21.95 59.15,22.64 63.53,23.94L65.96,24.67L66.81,24.92L69.91,25.87C71.94,26.419 74.075,26.45 76.12,25.96C78.897,25.241 81.845,25.598 84.37,26.96C86.648,28.261 88.172,30.574 88.47,33.18C88.733,35.477 90.075,37.518 92.08,38.67C95.063,40.304 98.181,41.679 101.4,42.78C103.67,43.64 105.94,44.62 108.19,45.5C109.308,45.924 110.294,46.634 111.05,47.56C111.693,48.333 112.078,49.288 112.15,50.29C112.29,52.29 112.52,54.29 112.62,56.29C112.777,59.078 112.164,61.856 110.85,64.32L110.85,64.35Z" style="fill-rule:nonzero;"/>
        <path d="M320.12,39.62C318.354,39.548 316.661,40.345 315.59,41.75C314.55,42.998 313.952,44.556 313.89,46.18L313.89,48.54C313.848,50.192 314.459,51.795 315.59,53C316.692,54.2 318.262,54.864 319.89,54.82C321.707,54.93 323.45,54.064 324.46,52.55C325.523,50.899 326.06,48.963 326,47C326.138,45.018 325.544,43.053 324.33,41.48C323.278,40.259 321.731,39.575 320.12,39.62Z" style="fill-rule:nonzero;"/>
        <path d="M387.38,39.53C385.556,39.424 383.793,40.23 382.68,41.68C381.54,43.277 380.966,45.21 381.05,47.17C380.991,49.107 381.544,51.015 382.63,52.62C383.704,54.128 385.482,54.979 387.33,54.87C389.174,54.962 390.95,54.138 392.07,52.67C393.242,51.048 393.834,49.079 393.75,47.08C393.854,45.089 393.232,43.127 392,41.56C390.855,40.21 389.149,39.46 387.38,39.53Z" style="fill-rule:nonzero;"/>
        <path d="M299.47,41.35C298.591,40.027 297.052,39.289 295.47,39.43C293.968,39.327 292.509,39.976 291.58,41.16C290.686,42.381 290.14,43.823 290,45.33L300.48,45.33C300.597,43.928 300.242,42.526 299.47,41.35Z" style="fill-rule:nonzero;"/>
        <path d="M357.74,30.75L352,30.75L352,54.06L357.72,54.06C361.367,54.06 364.15,53.06 366.07,51.06C367.99,49.06 368.967,46.177 369,42.41C369,38.79 368.04,35.94 366.12,33.86C364.2,31.78 361.407,30.743 357.74,30.75Z" style="fill-rule:nonzero;"/>
        <path d="M121.55,8.35L121.55,79.15L444.55,79.15L444.55,8.35L121.55,8.35ZM163.76,30.8L159.76,30.8L159.76,54L163.44,54L163.44,57.73L152.19,57.73L152.19,54L155.5,54L155.5,36.79L155.31,36.79L145.68,55.91L143.56,55.91L133.56,36.51L133.37,36.51L133.37,54L136.82,54L136.82,57.73L125.67,57.73L125.67,54L129.35,54L129.35,30.8L125.35,30.8L125.35,27.07L133,27.07L144.66,49.63L144.85,49.63L156.03,27.07L163.73,27.07L163.76,30.8ZM192.88,53.47C190.14,56.323 186.347,57.75 181.5,57.75L167.44,57.75L167.44,54.06L171.17,54.06L171.17,30.75L167.44,30.75L167.44,27.07L181.27,27.07C186.33,27.07 190.217,28.5 192.93,31.36C195.658,34.356 197.096,38.311 196.93,42.36C197.12,46.454 195.66,50.459 192.88,53.47ZM231.77,30.8L228.09,30.8L228.09,57.8L225.49,57.8L208.08,35L207.89,35L207.89,54L212.56,54L212.56,57.73L200.34,57.73L200.34,54L203.83,54L203.83,30.8L199.83,30.8L199.83,27.07L206.91,27.07L223.81,49.16L224,49.16L224,30.8L219.42,30.8L219.42,27.07L231.74,27.07L231.77,30.8ZM275.57,57.8L272.26,57.8L264.43,34.62L264.24,34.62L256.69,57.8L253.34,57.8L244.56,30.8L241.91,30.8L241.91,27.07L253,27.07L253,30.8L249.13,30.8L255,50.71L255.23,50.71L261.84,30.8L259,30.8L259,27.07L270,27.07L270,30.8L267.22,30.8L273.83,50.9L274.06,50.9L279.49,30.8L275.34,30.8L275.34,27.07L286.34,27.07L286.34,30.8L283.8,30.8L275.57,57.8ZM302.28,56.29C300.449,57.704 298.17,58.414 295.86,58.29C293.123,58.409 290.451,57.421 288.45,55.55C286.56,53.73 285.62,51.08 285.62,47.62C285.508,44.687 286.445,41.807 288.26,39.5C290.064,37.347 292.775,36.158 295.58,36.29C298.115,36.148 300.587,37.134 302.33,38.98C303.929,40.772 304.803,43.098 304.78,45.5C304.776,46.404 304.682,47.305 304.5,48.19L290,48.19C290.193,52.663 292.253,54.897 296.18,54.89C297.522,54.992 298.853,54.569 299.89,53.71C300.707,52.947 301.287,51.964 301.56,50.88L305.01,51.59C304.736,53.434 303.757,55.102 302.28,56.24L302.28,56.29ZM328.05,54.66C326.54,57.06 324.13,58.27 320.83,58.27C317.53,58.27 314.99,56.98 313.61,54.4C313.61,54.65 313.51,55.22 313.4,56.1C313.29,56.98 313.21,57.54 313.18,57.8L309,57.8C309.16,56.8 309.31,55.8 309.47,54.73C309.628,53.684 309.708,52.628 309.71,51.57L309.71,28.57L306.31,28.57L306.31,25.27L313.86,25.27L313.86,40.9C314.5,39.625 315.411,38.505 316.53,37.62C317.9,36.619 319.576,36.124 321.27,36.22C323.737,36.156 326.112,37.172 327.77,39C329.47,40.827 330.32,43.407 330.32,46.74C330.33,49.526 329.542,52.257 328.05,54.61L328.05,54.66ZM369.44,53.52C366.7,56.373 362.91,57.8 358.07,57.8L344,57.8L344,54.06L347.73,54.06L347.73,30.75L344,30.75L344,27.07L357.83,27.07C362.89,27.07 366.777,28.5 369.49,31.36C372.239,34.347 373.699,38.303 373.55,42.36C373.723,46.463 372.241,50.468 369.44,53.47L369.44,53.52ZM395.09,55.2C393.004,57.284 390.136,58.398 387.19,58.27C384.336,58.406 381.557,57.313 379.56,55.27C377.632,53.132 376.625,50.316 376.76,47.44C376.687,44.562 377.641,41.75 379.45,39.51C381.243,37.31 383.91,36.21 387.45,36.21C390.99,36.21 393.657,37.303 395.45,39.49C397.213,41.686 398.148,44.434 398.09,47.25C398.198,50.179 397.115,53.031 395.09,55.15L395.09,55.2ZM417.7,55.77C416.3,57.43 414.07,58.27 411.02,58.27C408.358,58.385 405.765,57.384 403.87,55.51C402.057,53.67 401.153,51.033 401.16,47.6C401.081,44.7 402.034,41.863 403.85,39.6C405.695,37.391 408.476,36.175 411.35,36.32C412.639,36.315 413.923,36.477 415.17,36.8C416.43,37.126 417.617,37.685 418.67,38.45L419.52,43.92L416.17,44.3L415.41,40.76C414.153,40.067 412.734,39.722 411.3,39.76C409.56,39.644 407.885,40.464 406.91,41.91C405.905,43.581 405.415,45.512 405.5,47.46C405.41,49.368 405.936,51.254 407,52.84C408.059,54.196 409.723,54.945 411.44,54.84C414.36,54.84 416.11,53.14 416.67,49.74L420.17,50.45C419.868,52.407 419.011,54.236 417.7,55.72L417.7,55.77ZM438.18,56.52C436.195,57.753 433.885,58.363 431.55,58.27C428.657,58.361 425.795,57.64 423.29,56.19L424,51L427.26,51.33L427.16,54.07C427.808,54.395 428.503,54.618 429.22,54.73C429.943,54.857 430.676,54.92 431.41,54.92C432.67,54.939 433.919,54.683 435.07,54.17C436.053,53.805 436.707,52.859 436.7,51.81C436.762,50.875 436.234,49.995 435.38,49.61C434.337,49.129 433.234,48.793 432.1,48.61C430.79,48.39 429.49,48.12 428.2,47.79C426.993,47.501 425.876,46.917 424.95,46.09C423.995,45.122 423.509,43.785 423.62,42.43C423.62,40.07 424.5,38.43 426.24,37.52C427.968,36.615 429.89,36.145 431.84,36.15C433.219,36.145 434.592,36.33 435.92,36.7C437.125,37.032 438.289,37.498 439.39,38.09L439.86,43.19L436.56,43.56L436.08,40.26C434.81,39.664 433.423,39.356 432.02,39.36C431.022,39.321 430.031,39.549 429.15,40.02C428.359,40.478 427.908,41.361 428,42.27C427.955,43.163 428.476,43.993 429.3,44.34C430.321,44.796 431.402,45.106 432.51,45.26C433.797,45.469 435.072,45.746 436.33,46.09C437.528,46.395 438.631,46.993 439.54,47.83C440.477,48.835 440.949,50.19 440.84,51.56C440.899,53.553 439.882,55.431 438.18,56.47L438.18,56.52Z" style="fill-rule:nonzero;"/>
        <path d="M181.17,30.75L175.46,30.75L175.46,54.06L181.17,54.06C184.817,54.06 187.603,53.06 189.53,51.06C191.457,49.06 192.417,46.19 192.41,42.45C192.41,38.83 191.45,35.98 189.53,33.9C187.61,31.82 184.823,30.77 181.17,30.75Z" style="fill-rule:nonzero;"/>
        <path d="M121.63,119.32L121.63,81.74L236.54,81.74L236.54,119.32L121.63,119.32ZM153.22,109L151.22,109L151.22,102.15C151.353,100.643 150.767,99.159 149.64,98.15C148.639,97.331 147.383,96.885 146.09,96.89C143.921,96.79 141.923,98.114 141.17,100.15C140.88,99.12 140.207,98.24 139.29,97.69C138.381,97.157 137.344,96.88 136.29,96.89C134.406,96.791 132.626,97.79 131.73,99.45L131.73,97.24L125.45,97.24L125.45,100.5L127.45,100.5L127.45,109L125.45,109L125.45,112.23L134.56,112.23L134.56,109L131.7,109L131.7,103.75C131.661,102.846 131.902,101.952 132.39,101.19C132.9,100.494 133.74,100.114 134.6,100.19C136.313,100.19 137.167,101.4 137.16,103.82L137.16,112.23L143.45,112.23L143.45,109L141.45,109L141.45,103.75C141.41,102.849 141.643,101.956 142.12,101.19C142.62,100.492 143.455,100.111 144.31,100.19C146.063,100.19 146.94,101.4 146.94,103.82L146.94,112.23L153.22,112.23L153.22,109ZM163.1,96.93C160.433,96.93 158.433,97.717 157.1,99.29C155.76,100.866 155.048,102.882 155.1,104.95C154.974,107.048 155.767,109.101 157.27,110.57C158.822,111.943 160.849,112.661 162.92,112.57C165.096,112.65 167.222,111.895 168.86,110.46C170.437,109.009 171.294,106.931 171.2,104.79C171.234,102.77 170.522,100.808 169.2,99.28C167.82,97.72 165.787,96.94 163.1,96.94L163.1,96.93ZM163,109.28C161.952,109.327 160.953,108.822 160.37,107.95C159.746,106.98 159.432,105.843 159.47,104.69C159.406,103.513 159.761,102.351 160.47,101.41C161.108,100.632 162.074,100.195 163.08,100.23C164.056,100.213 164.995,100.605 165.67,101.31C166.45,102.228 166.835,103.419 166.74,104.62C166.817,105.838 166.462,107.046 165.74,108.03C165.079,108.859 164.059,109.324 163,109.28ZM188,106.98L184.61,106.69L183.91,109.01L179,109.01L187.32,99.47L187,97.24L173.81,97.24L173.28,102.49L176.44,102.83L177.11,100.47L181.76,100.47L173.51,110L173.95,112.26L187.08,112.26L188,106.98ZM195.62,97.24L191.16,97.24L191.16,102.63L195.62,102.63L195.62,97.24ZM195.62,106.85L191.16,106.85L191.16,112.24L195.62,112.24L195.62,106.85ZM209.16,89.36L204.93,89.36L198.45,112.24L202.67,112.24L209.16,89.36ZM217.84,89.36L213.61,89.36L207.16,112.24L211.35,112.24L217.84,89.36ZM232.84,111.87L232.77,109.61C232.594,109.687 232.402,109.721 232.21,109.71C231.52,109.71 231.21,109.32 231.21,108.55L231.21,102.06C231.309,100.557 230.628,99.105 229.41,98.22C228.195,97.362 226.737,96.914 225.25,96.94C224.189,96.924 223.129,97.025 222.09,97.24C220.969,97.514 219.87,97.869 218.8,98.3L218.24,101.76L221.63,102.16L222.13,100.47C222.461,100.273 222.828,100.147 223.21,100.1C223.625,100.054 224.042,100.03 224.46,100.03C225.65,100.03 226.35,100.4 226.55,101.13C226.75,101.867 226.851,102.627 226.85,103.39L226.85,103.89C226.46,103.827 226.065,103.79 225.67,103.78L224.46,103.78C222.815,103.757 221.181,104.056 219.65,104.66C218.198,105.251 217.306,106.741 217.47,108.3C217.337,109.593 217.901,110.863 218.95,111.63C219.865,112.263 220.947,112.611 222.06,112.63C223.135,112.681 224.195,112.36 225.06,111.72C225.788,111.18 226.4,110.5 226.86,109.72C226.86,109.726 226.86,109.732 226.86,109.738C226.86,111.384 228.214,112.738 229.86,112.738C229.97,112.738 230.08,112.732 230.19,112.72C231.135,112.668 232.051,112.376 232.85,111.87L232.84,111.87ZM223.59,109.55C223.082,109.591 222.581,109.4 222.23,109.03C221.944,108.693 221.791,108.262 221.8,107.82C221.713,107.138 222.055,106.468 222.66,106.14C223.287,105.853 223.97,105.709 224.66,105.72C225.018,105.718 225.375,105.742 225.73,105.79L226.79,105.92C226.84,106.945 226.446,107.944 225.71,108.66C225.139,109.203 224.388,109.52 223.6,109.55L223.59,109.55Z" style="fill-rule:nonzero;"/>
    </g>
</svg>
